<?xml version="1.0" encoding="utf-8"?>
<!-- Generator: Adobe Illustrator 25.0.1, SVG Export Plug-In . SVG Version: 6.00 Build 0)  -->
<svg version="1.1" id="Layer_1" xmlns="http://www.w3.org/2000/svg" xmlns:xlink="http://www.w3.org/1999/xlink" x="0px" y="0px"
	 viewBox="0 0 640 640" style="enable-background:new 0 0 640 640;" xml:space="preserve">
<style type="text/css">
	.st0{fill:#9A4993;}
	.st1{fill:#6A1577;}
	.st2{fill:#813084;}
	.st3{fill:#FFFFFF;}
</style>
<path id="XMLID_3_" class="st0" d="M531.6,221.8c0-7.9-1.7-15.1-5.2-21.1c-3.4-6-8.5-10.9-15.2-14.8
	c-56.2-32.4-112.5-64.8-168.7-97.2c-15.2-8.7-29.8-8.5-44.9,0.4c-22.4,13.1-134.5,77.4-167.8,96.8c-13.8,7.9-20.4,20.2-20.4,36
	c0,65.2,0,130.5,0,195.7c0,7.8,1.7,14.7,4.9,20.7c3.4,6.1,8.6,11.3,15.5,15.4c33.4,19.4,145.4,83.5,167.8,96.8
	c15.1,8.8,29.8,9.2,44.9,0.4c56.2-32.5,112.5-64.8,168.7-97.2c7-4,12.1-9.1,15.5-15.4c3.3-6,4.9-12.9,4.9-20.7
	C531.6,417.4,531.6,286.9,531.6,221.8"/>
<path id="XMLID_4_" class="st1" d="M321,318.9L114,438.1c3.4,6.1,8.6,11.3,15.5,15.4C163,472.8,275,537,297.3,550.3
	c15.1,8.8,29.8,9.2,44.9,0.4c56.2-32.5,112.5-64.8,168.7-97.2c7-4,12.1-9.1,15.5-15.4L321,318.9"/>
<path id="XMLID_5_" class="st1" d="M259.7,354.2c12.1,21.1,34.7,35.3,60.6,35.3c26.1,0,48.9-14.3,60.9-35.6L321,318.9L259.7,354.2"
	/>
<path id="XMLID_6_" class="st2" d="M531.6,221.8c0-7.9-1.7-15.1-5.2-21.1L321,318.9l205.7,119.2c3.3-6,4.9-12.9,4.9-20.7
	C531.6,417.4,531.6,286.9,531.6,221.8"/>
<path id="XMLID_9_" class="st3" d="M381.3,353.8c-12,21.2-34.7,35.6-60.9,35.6c-26,0-48.7-14.2-60.6-35.3c-5.9-10.3-9.2-22-9.2-34.6
	c0-38.6,31.2-69.9,69.9-69.9c25.8,0,48.3,14.1,60.4,34.9l61-35.1c-24.3-41.9-69.6-70.1-121.5-70.1c-77.5,0-140.2,62.8-140.2,140.2
	c0,25.4,6.8,49.3,18.6,69.9c24.2,42,69.7,70.4,121.8,70.4c52.2,0,97.7-28.5,121.9-70.8L381.3,353.8"/>
<g id="XMLID_32_">
	<rect id="XMLID_2_" x="444.5" y="286.4" class="st3" width="13.9" height="67.3"/>
	<rect id="XMLID_30_" x="475.3" y="286.4" class="st3" width="13.9" height="67.3"/>
	<rect id="XMLID_31_" x="433.3" y="297.7" class="st3" width="67.3" height="13.9"/>
	<rect id="XMLID_23_" x="433.3" y="328.4" class="st3" width="67.3" height="13.9"/>
</g>
</svg>
